<svg xmlns="http://www.w3.org/2000/svg" id="Capa_1" style="enable-background:new 0 0 486.3 486.3;" viewBox="0 0 486.3 486.3" x="0px" y="0px" xmlns:xlink="http://www.w3.org/1999/xlink" version="1.1" xmlns:xml="http://www.w3.org/XML/1998/namespace" xml:space="preserve">
<g>
	<g>
		<path d="M 395.5 135.8 c -5.2 -30.9 -20.5 -59.1 -43.9 -80.5 c -26 -23.8 -59.8 -36.9 -95 -36.9 c -27.2 0 -53.7 7.8 -76.4 22.5 c -18.9 12.2 -34.6 28.7 -45.7 48.1 c -4.8 -0.9 -9.8 -1.4 -14.8 -1.4 c -42.5 0 -77.1 34.6 -77.1 77.1 c 0 5.5 0.6 10.8 1.6 16 C 16.7 200.7 0 232.9 0 267.2 c 0 27.7 10.3 54.6 29.1 75.9 c 19.3 21.8 44.8 34.7 72 36.2 c 0.3 0 0.5 0 0.8 0 h 86 c 7.5 0 13.5 -6 13.5 -13.5 s -6 -13.5 -13.5 -13.5 h -85.6 C 61.4 349.8 27 310.9 27 267.1 c 0 -28.3 15.2 -54.7 39.7 -69 c 5.7 -3.3 8.1 -10.2 5.9 -16.4 c -2 -5.4 -3 -11.1 -3 -17.2 c 0 -27.6 22.5 -50.1 50.1 -50.1 c 5.9 0 11.7 1 17.1 3 c 6.6 2.4 13.9 -0.6 16.9 -6.9 c 18.7 -39.7 59.1 -65.3 103 -65.3 c 59 0 107.7 44.2 113.3 102.8 c 0.6 6.1 5.2 11 11.2 12 c 44.5 7.6 78.1 48.7 78.1 95.6 c 0 49.7 -39.1 92.9 -87.3 96.6 h -73.7 c -7.5 0 -13.5 6 -13.5 13.5 s 6 13.5 13.5 13.5 h 74.2 c 0.3 0 0.6 0 1 0 c 30.5 -2.2 59 -16.2 80.2 -39.6 c 21.1 -23.2 32.6 -53 32.6 -84 C 486.2 199.5 447.9 149.6 395.5 135.8 Z" />
		<path d="M 324.2 280 c 5.3 -5.3 5.3 -13.8 0 -19.1 l -71.5 -71.5 c -2.5 -2.5 -6 -4 -9.5 -4 s -7 1.4 -9.5 4 l -71.5 71.5 c -5.3 5.3 -5.3 13.8 0 19.1 c 2.6 2.6 6.1 4 9.5 4 s 6.9 -1.3 9.5 -4 l 48.5 -48.5 v 222.9 c 0 7.5 6 13.5 13.5 13.5 s 13.5 -6 13.5 -13.5 V 231.5 l 48.5 48.5 C 310.4 285.3 318.9 285.3 324.2 280 Z" />
	</g>
</g>
<g>
</g>
<g>
</g>
<g>
</g>
<g>
</g>
<g>
</g>
<g>
</g>
<g>
</g>
<g>
</g>
<g>
</g>
<g>
</g>
<g>
</g>
<g>
</g>
<g>
</g>
<g>
</g>
<g>
</g>
</svg>